<svg width="90" height="28" viewBox="0 0 90 28" fill="none" xmlns="http://www.w3.org/2000/svg">
<path d="M1.00049 17.0426C1.00049 17.0426 5.50049 15.5426 14.5005 17.0426C23.5005 18.5426 23.5005 1.50712 30.5005 1.00712C37.5005 0.507121 22.0005 26.5093 31.5005 25.0094C36.3887 24.2377 38.3655 12.8099 45.0005 13.0094C51.2602 13.1976 52.3625 17.7537 56.0005 13.5093C59.0005 10.0093 53.5005 6.50928 50.5005 11.5093C47.5005 16.5093 50.5005 21.0093 56.0005 24.5093C61.5005 28.0093 73.5005 27.5093 65.5005 19.5094C57.5005 11.5096 74.5005 17.0094 72.0005 10.5094C69.5005 4.00942 88.5005 8.50928 88.5005 8.50928" stroke="white" stroke-width="2" stroke-linecap="round" stroke-linejoin="round"/>
</svg>
